<svg width="600" height="600" viewBox="0 0 600 600" fill="none" xmlns="http://www.w3.org/2000/svg">
<rect width="600" height="600" fill="#2F9C95"/>
<g clip-path="url(#clip0_11660_922)">
<path d="M359.946 419.949C359.946 436.513 373.373 449.94 389.937 449.94C406.501 449.94 419.928 436.513 419.928 419.949C419.928 403.385 406.501 389.958 389.937 389.958C373.373 389.958 359.946 403.385 359.946 419.949Z" fill="white"/>
<path d="M372.362 299.985L398.215 274.133C419.088 253.259 425.266 222.158 413.96 194.897C402.683 167.665 376.321 150.03 346.81 150.03H299.964C283.4 150.03 269.973 163.457 269.973 180.021C269.973 196.585 283.4 210.012 299.964 210.012H346.81C354.188 210.012 357.337 214.931 358.566 217.87C359.766 220.809 361.026 226.507 355.807 231.725L278.756 308.777C273.132 314.4 269.973 322.028 269.973 329.981C269.973 346.542 283.398 359.967 299.959 359.967H389.937C406.501 359.967 419.928 346.54 419.928 329.976C419.928 313.412 406.501 299.985 389.937 299.985H372.362Z" fill="white"/>
<path d="M179.052 180.718L178.761 419.365C178.74 436.318 192.494 450.063 209.447 450.033C226.328 450.004 240.003 436.321 240.024 419.44L240.315 180.793C240.336 163.84 226.583 150.094 209.63 150.124C192.748 150.154 179.073 163.836 179.052 180.718Z" fill="white"/>
</g>
<defs>
<clipPath id="clip0_11660_922">
<rect width="239.928" height="300" fill="white" transform="translate(180 150)"/>
</clipPath>
</defs>
</svg>
